<?xml version="1.0" standalone="no"?>
<!DOCTYPE svg PUBLIC "-//W3C//DTD SVG 20010904//EN"
 "http://www.w3.org/TR/2001/REC-SVG-20010904/DTD/svg10.dtd">
<svg version="1.0" xmlns="http://www.w3.org/2000/svg"
 width="2442.000000pt" height="2048.000000pt" viewBox="0 0 2442.000000 2048.000000"
 preserveAspectRatio="xMidYMid meet">

<g transform="translate(0.000000,2048.000000) scale(0.100000,-0.100000)" fill="#F357FF"
stroke="none">
<path d="M5482 15738 c-2602 -2609 -4900 -4912 -5106 -5118 -296 -295 -372
-376 -359 -381 10 -4 2315 -2309 5121 -5123 l5104 -5116 2811 0 2811 0 -525
527 c-288 291 -1950 1958 -3694 3706 -1743 1748 -3171 3183 -3173 3188 -2 5
3036 9 7972 9 l7976 0 0 2810 0 2810 -7991 0 c-4766 0 -7989 4 -7987 9 2 5
1605 1615 3563 3578 1958 1963 3621 3630 3695 3706 l134 137 -2811 0 -2810 0
-4731 -4742z"/>
</g>
</svg>
